<svg width="32" height="32" viewBox="0 0 32 32" fill="none" xmlns="http://www.w3.org/2000/svg">
<path d="M28 8H24V6C24 4.9 23.1 4 22 4H4C2.9 4 2 4.9 2 6V20C2 21.1 2.9 22 4 22H6C6 24.2 7.8 26 10 26C12.2 26 14 24.2 14 22H18C18 24.2 19.8 26 22 26C24.2 26 26 24.2 26 22H28C29.1 22 30 21.1 30 20V14L28 8ZM10 24C8.9 24 8 23.1 8 22C8 20.9 8.9 20 10 20C11.1 20 12 20.9 12 22C12 23.1 11.1 24 10 24ZM22 24C20.9 24 20 23.1 20 22C20 20.9 20.9 20 22 20C23.1 20 24 20.9 24 22C24 23.1 23.1 24 22 24Z" fill="#99A1AF"/>
<path d="M6 8L8 10L12 6" stroke="#99A1AF" stroke-width="2" stroke-linecap="round" stroke-linejoin="round"/>
</svg>